<svg width="234" height="37" viewBox="0 0 234 37" fill="none" xmlns="http://www.w3.org/2000/svg">
<path d="M94.5292 18.3374C94.5292 18.9269 94.4921 19.4575 94.4177 19.9292H83.1237C83.2167 21.1082 83.6071 22.0318 84.2949 22.7C84.9828 23.3681 85.8288 23.7022 86.8327 23.7022C88.2826 23.7022 89.3144 23.0439 89.9281 21.7272H94.1387C93.6927 23.2993 92.8374 24.5964 91.5732 25.6182C90.3091 26.6203 88.7567 27.1215 86.9162 27.1215C85.429 27.1215 84.0906 26.7777 82.9006 26.0898C81.7295 25.3823 80.8093 24.39 80.14 23.1126C79.4892 21.8353 79.1641 20.3615 79.1641 18.6911C79.1641 17.0011 79.4892 15.5174 80.14 14.2401C80.7907 12.9628 81.7017 11.9802 82.8728 11.2924C84.044 10.6046 85.3918 10.2607 86.9162 10.2607C88.3849 10.2607 89.6957 10.5948 90.8483 11.2629C92.0195 11.9311 92.9211 12.8842 93.5531 14.1222C94.2038 15.3406 94.5292 16.7456 94.5292 18.3374ZM90.4858 17.1583C90.467 16.0972 90.1045 15.2521 89.3981 14.6233C88.6917 13.9748 87.8272 13.6506 86.8047 13.6506C85.8381 13.6506 85.0201 13.965 84.3508 14.5938C83.7 15.203 83.3005 16.0578 83.1516 17.1583H90.4858Z" fill="#060606"/>
<path d="M127.685 12.8842C128.187 12.1374 128.875 11.5184 129.749 11.0271C130.641 10.5162 131.654 10.2607 132.789 10.2607C134.109 10.2607 135.298 10.6046 136.358 11.2924C137.436 11.9802 138.282 12.9628 138.895 14.2401C139.528 15.4978 139.844 16.9618 139.844 18.6322C139.844 20.3025 139.528 21.7862 138.895 23.0832C138.282 24.3605 137.436 25.353 136.358 26.0603C135.298 26.7679 134.109 27.1215 132.789 27.1215C131.654 27.1215 130.65 26.876 129.777 26.3846C128.922 25.8933 128.224 25.2742 127.685 24.5274V34.638H123.781V10.526H127.685V12.8842ZM135.856 18.6322C135.856 17.6496 135.661 16.8046 135.27 16.0972C134.899 15.3701 134.397 14.8198 133.765 14.4465C133.151 14.0731 132.482 13.8864 131.757 13.8864C131.05 13.8864 130.381 14.0829 129.749 14.4759C129.135 14.8493 128.634 15.3995 128.243 16.1266C127.871 16.8537 127.685 17.7086 127.685 18.6911C127.685 19.6737 127.871 20.5285 128.243 21.2556C128.634 21.9827 129.135 22.5428 129.749 22.9358C130.381 23.3092 131.05 23.4958 131.757 23.4958C132.482 23.4958 133.151 23.2993 133.765 22.9063C134.397 22.5133 134.899 21.9532 135.27 21.2261C135.661 20.499 135.856 19.6344 135.856 18.6322Z" fill="#060606"/>
<path d="M150.263 10.29C151.434 10.29 152.475 10.5652 153.386 11.1154C154.297 11.646 155.004 12.4418 155.506 13.503C156.026 14.5445 156.286 15.8022 156.286 17.2761V26.8561H152.382V17.8361C152.382 16.5391 152.076 15.5467 151.462 14.859C150.849 14.1515 150.012 13.7978 148.952 13.7978C147.874 13.7978 147.019 14.1515 146.387 14.859C145.773 15.5467 145.467 16.5391 145.467 17.8361V26.8561H141.562V1.97266H145.467V12.5598C145.968 11.8523 146.638 11.3021 147.474 10.9091C148.311 10.4964 149.24 10.29 150.263 10.29Z" fill="#060606"/>
<path d="M160.867 8.57934C160.179 8.57934 159.603 8.35335 159.138 7.90137C158.692 7.42974 158.469 6.85002 158.469 6.16223C158.469 5.47443 158.692 4.90454 159.138 4.45256C159.603 3.98093 160.179 3.74512 160.867 3.74512C161.555 3.74512 162.122 3.98093 162.568 4.45256C163.033 4.90454 163.265 5.47443 163.265 6.16223C163.265 6.85002 163.033 7.42974 162.568 7.90137C162.122 8.35335 161.555 8.57934 160.867 8.57934ZM162.791 10.5248V26.8551H158.887V10.5248H162.791Z" fill="#060606"/>
<path d="M171.444 27.1215C170.18 27.1215 169.046 26.8856 168.042 26.414C167.038 25.9229 166.238 25.2646 165.644 24.439C165.067 23.6138 164.751 22.7 164.695 21.6978H168.627C168.702 22.3266 168.99 22.8473 169.492 23.26C170.012 23.6727 170.654 23.879 171.416 23.879C172.16 23.879 172.736 23.7218 173.145 23.4074C173.572 23.093 173.786 22.6901 173.786 22.1989C173.786 21.6683 173.526 21.2753 173.005 21.0198C172.504 20.7447 171.695 20.4499 170.579 20.1355C169.427 19.8407 168.479 19.5361 167.735 19.2217C167.01 18.9073 166.378 18.4258 165.839 17.7773C165.318 17.1288 165.058 16.2544 165.058 15.1539C165.058 14.2499 165.3 13.4246 165.783 12.6778C166.285 11.9311 166.991 11.3415 167.902 10.9092C168.832 10.4769 169.919 10.2607 171.165 10.2607C173.005 10.2607 174.474 10.752 175.571 11.7346C176.668 12.6975 177.272 14.0043 177.383 15.655H173.647C173.591 15.0065 173.331 14.4956 172.866 14.1222C172.42 13.7292 171.816 13.5327 171.053 13.5327C170.347 13.5327 169.799 13.6702 169.408 13.9453C169.036 14.2205 168.85 14.6037 168.85 15.0949C168.85 15.6452 169.111 16.0677 169.631 16.3624C170.152 16.6376 170.96 16.9225 172.057 17.2173C173.173 17.512 174.093 17.8166 174.818 18.131C175.543 18.4455 176.166 18.9368 176.686 19.6049C177.226 20.2534 177.504 21.1181 177.523 22.1989C177.523 23.1421 177.272 23.9871 176.77 24.7338C176.287 25.4805 175.58 26.0701 174.651 26.5024C173.74 26.9151 172.671 27.1215 171.444 27.1215Z" fill="#060606"/>
<path d="M70.8308 9.98438C72.6566 9.98438 74.1242 10.6062 75.2339 11.8498C76.3617 13.0737 76.9254 14.7911 76.9254 17.002V26.6251H73.1666V17.5645C73.1666 16.2814 72.8714 15.3043 72.2807 14.6331C71.69 13.9422 70.8846 13.5968 69.8644 13.5968C68.8442 13.5968 68.0297 13.9422 67.4212 14.6331C66.8305 15.3043 66.535 16.2814 66.535 17.5645V26.6251H62.7764V17.5645C62.7764 16.2814 62.481 15.3043 61.8905 14.6331C61.2998 13.9422 60.4944 13.5968 59.474 13.5968C58.436 13.5968 57.6127 13.9422 57.0041 14.6331C56.4134 15.3043 56.118 16.2814 56.118 17.5645V26.6251H52.3594V10.2213H56.118V12.2051C56.6013 11.5142 57.2189 10.9714 57.9705 10.5766C58.7402 10.1818 59.5814 9.98438 60.4944 9.98438C61.6577 9.98438 62.696 10.2607 63.6088 10.8135C64.5216 11.3464 65.2284 12.1163 65.7296 13.123C66.2129 12.1755 66.911 11.4155 67.8238 10.8431C68.7547 10.2706 69.757 9.98438 70.8308 9.98438Z" fill="#060606"/>
<path d="M115.284 9.98438C117.11 9.98438 118.578 10.6062 119.687 11.8498C120.815 13.0737 121.379 14.7911 121.379 17.002V26.6251H117.62V17.5645C117.62 16.2814 117.324 15.3043 116.734 14.6331C116.143 13.9422 115.338 13.5968 114.318 13.5968C113.297 13.5968 112.483 13.9422 111.874 14.6331C111.284 15.3043 110.988 16.2814 110.988 17.5645V26.6251H107.23V17.5645C107.23 16.2814 106.934 15.3043 106.344 14.6331C105.753 13.9422 104.948 13.5968 103.927 13.5968C102.889 13.5968 102.066 13.9422 101.457 14.6331C100.867 15.3043 100.571 16.2814 100.571 17.5645V26.6251H96.8125V10.2213H100.571V12.2051C101.055 11.5142 101.672 10.9714 102.424 10.5766C103.194 10.1818 104.035 9.98438 104.948 9.98438C106.111 9.98438 107.149 10.2607 108.062 10.8135C108.975 11.3464 109.682 12.1163 110.183 13.123C110.666 12.1755 111.364 11.4155 112.277 10.8431C113.208 10.2706 114.21 9.98438 115.284 9.98438Z" fill="#060606"/>
<path d="M183.524 24.8042C183.524 23.4404 182.494 22.373 181.091 22.373C179.632 22.373 178.602 23.4404 178.602 24.8042C178.602 26.1682 179.632 27.2354 181.091 27.2354C182.494 27.2354 183.524 26.1682 183.524 24.8042Z" fill="#060606"/>
<path d="M184.148 18.7549C184.148 23.8841 187.354 27.2937 191.389 27.2937C193.879 27.2937 195.653 26.1078 196.597 24.5956V27.0268H200.661V5.08691H196.597V12.8845C195.51 11.3428 193.507 10.3347 191.418 10.3347C187.354 10.3347 184.148 13.6257 184.148 18.7549ZM196.626 18.8142C196.626 21.9273 194.623 23.6469 192.419 23.6469C190.273 23.6469 188.241 21.868 188.241 18.7549C188.241 15.6418 190.273 13.9815 192.419 13.9815C194.623 13.9815 196.626 15.7011 196.626 18.8142Z" fill="#060606"/>
<path d="M209.81 13.7445C211.871 13.7445 213.531 15.1084 213.588 17.2727H206.061C206.376 15.0194 207.893 13.7445 209.81 13.7445ZM217.337 21.8682H213.015C212.5 22.9652 211.556 23.8547 209.839 23.8547C207.836 23.8547 206.233 22.4909 206.033 20.0597H217.623C217.709 19.526 217.738 18.9923 217.738 18.4586C217.738 13.5666 214.504 10.335 209.925 10.335C205.231 10.335 201.969 13.6259 201.969 18.8144C201.969 23.9733 205.317 27.294 209.925 27.294C213.845 27.294 216.478 24.8923 217.337 21.8682Z" fill="#060606"/>
<path d="M217.406 10.6025L223.244 27.0278H228.109L233.975 10.6025H229.712L225.706 23.2032L221.699 10.6025H217.406Z" fill="#060606"/>
<path fill-rule="evenodd" clip-rule="evenodd" d="M21.6789 33.0652C21.5706 33.514 21.3531 33.9005 21.0341 34.2727C20.687 34.6718 20.2024 35.0134 19.6842 35.2818C18.5045 35.893 17.1361 36.0771 15.7865 35.8966L15.7776 35.8954L15.7687 35.8945C14.5454 35.7633 13.3685 35.2405 12.446 34.3765L1.52886 23.1643L1.52783 23.1632C1.2182 22.8424 1.00736 22.5756 0.871169 22.2581C0.721432 21.9091 0.649126 21.5709 0.648438 21.1897L0.743401 14.9917L0.741845 14.9643C0.707026 14.3511 0.908015 13.7585 1.40514 13.2038L1.4089 13.1996L1.41259 13.1954C1.75824 12.7975 2.24063 12.4566 2.75692 12.1883C3.91947 11.621 5.33959 11.4263 6.68812 11.601C8.04393 11.7765 9.25358 12.3147 10.0361 13.1254L10.0377 13.1271L20.9831 24.3192L20.9969 24.332C21.3165 24.626 21.5422 25.0042 21.7005 25.4552C21.8088 25.7639 21.874 26.0359 21.8937 26.3023L21.7524 32.5976V32.606C21.7524 32.7072 21.7237 32.8794 21.6789 33.0652Z" fill="#FFC633"/>
<path d="M26.4297 11.2627C26.6117 11.5514 26.7576 11.8647 26.8629 12.1952C26.9988 12.6227 27.0997 13.2897 27.092 13.7361L27.0559 15.9594L34.3444 23.5078C35.267 24.3721 36.4439 24.8949 37.6673 25.0258L37.6761 25.0268L37.6849 25.028C39.0346 25.2084 40.4029 25.0244 41.5826 24.4134C42.101 24.1448 42.5854 23.8032 42.9326 23.4042C43.2515 23.0321 43.469 22.6453 43.5773 22.1965C43.6223 22.0108 43.6508 21.8387 43.6508 21.7375V21.729L43.7921 15.4337C43.7877 15.3726 43.7807 15.3111 43.7714 15.2487L26.4297 11.2627Z" fill="#6557FF"/>
<path d="M43.7716 15.2476C43.7408 15.0419 43.6835 14.8267 43.5993 14.5871C43.4412 14.1361 43.2153 13.758 42.8959 13.4637L42.882 13.451L31.9367 2.25892L31.935 2.25723C31.1526 1.44659 29.9429 0.908365 28.5871 0.73279C27.2386 0.558158 25.8183 0.752814 24.6558 1.32014C24.1395 1.5884 23.6571 1.92935 23.3116 2.32722L23.3079 2.33148L23.3042 2.33567C22.8069 2.89029 22.6059 3.48294 22.6408 4.09613L22.6423 4.12355L22.5469 8.84347C23.7606 9.15175 24.9185 9.60053 25.762 10.4605C26.0192 10.6971 26.2437 10.9673 26.4301 11.2631L43.7716 15.2476Z" fill="#6557FF"/>
<path d="M25.3358 22.1231C25.3557 22.1015 25.3755 22.0797 25.3952 22.0579C25.7771 21.6335 26.0489 21.1157 26.1853 20.5529C26.2368 20.3412 26.2653 20.1241 26.2706 19.9058L26.3843 13.5664C26.3799 13.7801 26.3103 13.3973 26.2614 13.605C26.3054 13.3957 26.3806 13.7926 26.384 13.5801L26.3843 13.5797C26.3901 13.2162 26.3374 12.8528 26.2266 12.5048C26.051 11.9531 25.7363 11.4602 25.3147 11.0771C23.4599 9.17016 19.8163 8.68976 17.2044 9.99862C16.6136 10.2863 16.0819 10.6891 15.6381 11.1849C15.0012 11.9064 14.6979 12.7542 14.7573 13.6038L14.7464 14.1475L25.3358 22.1231L25.3353 22.1233L14.7464 14.1475L14.6953 16.6783L21.6383 23.7778C21.6787 23.8149 21.7177 23.853 21.7556 23.8919C22.479 23.7814 23.1823 23.5689 23.8242 23.2491C24.3898 22.9718 24.9019 22.5902 25.3353 22.1233L25.3358 22.1231Z" fill="#61DFC6"/>
</svg>
