<?xml version="1.0" encoding="UTF-8" standalone="no"?>
<svg
   width="548"
   height="106"
   viewBox="0 0 548 106"
   fill="none"
   version="1.1"
   id="svg28"
   sodipodi:docname="color_logo_dark_theme.svg"
   xml:space="preserve"
   inkscape:version="1.2.1 (9c6d41e410, 2022-07-14)"
   xmlns:inkscape="http://www.inkscape.org/namespaces/inkscape"
   xmlns:sodipodi="http://sodipodi.sourceforge.net/DTD/sodipodi-0.dtd"
   xmlns="http://www.w3.org/2000/svg"
   xmlns:svg="http://www.w3.org/2000/svg"><defs
     id="defs32" /><sodipodi:namedview
     id="namedview30"
     pagecolor="#505050"
     bordercolor="#eeeeee"
     borderopacity="1"
     inkscape:showpageshadow="0"
     inkscape:pageopacity="0"
     inkscape:pagecheckerboard="0"
     inkscape:deskcolor="#505050"
     showgrid="false"
     inkscape:zoom="2.2080292"
     inkscape:cx="274"
     inkscape:cy="53.441322"
     inkscape:window-width="2560"
     inkscape:window-height="1377"
     inkscape:window-x="1912"
     inkscape:window-y="-8"
     inkscape:window-maximized="1"
     inkscape:current-layer="g231" /><path
     fill-rule="evenodd"
     clip-rule="evenodd"
     d="M65.0806 96.7636C64.7454 98.1044 64.0721 99.2595 63.0851 100.371C62.0109 101.563 60.5113 102.584 58.9076 103.385C55.2571 105.211 51.0225 105.76 46.8459 105.222L46.8184 105.218L46.7908 105.215C43.0052 104.824 39.3632 103.262 36.5084 100.681L2.72455 67.1893L2.72133 67.1861C1.76317 66.2276 1.11071 65.4307 0.689257 64.4824C0.225889 63.4399 0.00213372 62.4298 0 61.2909L0.293869 42.7771L0.289054 42.6953C0.181308 40.8636 0.803282 39.0934 2.34168 37.4366L2.35331 37.4241L2.36475 37.4114C3.43438 36.2229 4.92716 35.2045 6.52488 34.4032C10.1225 32.7085 14.5172 32.1271 18.6903 32.6487C22.8859 33.1732 26.6293 34.7809 29.0508 37.2023L29.0558 37.2074L62.9271 70.6388L62.97 70.6769C63.9589 71.5559 64.6574 72.6853 65.1472 74.0324C65.4825 74.9544 65.6841 75.7668 65.7451 76.563L65.3078 95.3672V95.3927C65.3078 95.6948 65.2192 96.2089 65.0806 96.7636Z"
     fill="#FFC633"
     id="path16" /><path
     d="M79.7713 31.6397C80.3346 32.5023 80.7862 33.438 81.1116 34.4251C81.5327 35.7022 81.8445 37.6947 81.8208 39.0281L81.7091 45.669L104.264 68.2167C107.119 70.7981 110.761 72.3597 114.546 72.7513L114.574 72.7542L114.602 72.7577C118.778 73.2967 123.013 72.7468 126.663 70.9215C128.267 70.1197 129.767 69.0991 130.841 67.9074C131.828 66.7957 132.501 65.6405 132.836 64.2997C132.975 63.745 133.063 63.231 133.063 62.9289V62.9033L133.501 44.099C133.487 43.9164 133.465 43.7325 133.436 43.5461L79.7713 31.6397Z"
     fill="#6557FF"
     id="path18" /><path
     d="M133.436 43.5417C133.34 42.9271 133.163 42.2843 132.903 41.5685C132.413 40.2215 131.715 39.0921 130.726 38.2131L130.683 38.175L96.8115 4.74355L96.8064 4.73848C94.385 2.31705 90.6416 0.709333 86.4459 0.184873C82.2728 -0.336762 77.8781 0.244684 74.2805 1.93933C72.6828 2.74063 71.19 3.75908 70.1204 4.94756L70.1089 4.96026L70.0973 4.97279C68.5589 6.62952 67.9369 8.39976 68.0447 10.2314L68.0495 10.3133L67.7541 24.412C71.5097 25.3329 75.0937 26.6735 77.7034 29.2424C78.4995 29.9489 79.1941 30.7561 79.7713 31.6397L133.436 43.5417Z"
     fill="#6557FF"
     id="path20" /><path
     d="M135.699 44.0437L135.699 44.0394Z"
     fill="#6557FF"
     id="path22" /><path
     d="M135.699 44.0437L135.699 44.048Z"
     fill="#6557FF"
     id="path24" /><path
     d="M76.378 64.0803C76.4398 64.016 76.5008 63.9509 76.5616 63.8855C77.7437 62.6179 78.5851 61.0713 79.007 59.3901C79.1663 58.7576 79.2548 58.1093 79.2706 57.4572L79.6228 38.5209C79.6091 39.1594 79.3939 38.0158 79.2425 38.6363C79.3783 38.0109 79.6113 39.1966 79.6222 38.562L79.6223 38.5605C79.6408 37.475 79.4775 36.3895 79.1348 35.3498C78.5915 33.7019 77.6171 32.2294 76.3127 31.0852C70.5726 25.389 59.2975 23.954 51.2146 27.8637C49.3866 28.723 47.741 29.9261 46.3678 31.4073C44.3968 33.5623 43.4581 36.0949 43.6421 38.6326L43.6082 40.2567L76.378 64.0803L76.3767 64.0811L43.6082 40.2567L43.4502 47.8165L64.9358 69.023C65.0607 69.1341 65.1817 69.2477 65.2988 69.3639C67.5375 69.0339 69.714 68.3992 71.7001 67.4438C73.4507 66.6155 75.0352 65.4758 76.3767 64.0811L76.378 64.0803Z"
     fill="#61DFC6"
     id="path26" /><g
     style="fill:none"
     id="g231"
     transform="translate(3.151,1.2974462)"><path
       d="m 286.627,51.7596 c 0,1.7489 -0.114,3.3229 -0.342,4.722 h -34.71 c 0.286,3.4977 1.486,6.2377 3.6,8.2197 2.114,1.9821 4.713,2.9731 7.799,2.9731 4.456,0 7.627,-1.9529 9.513,-5.8587 h 12.941 c -1.372,4.6636 -4,8.5111 -7.885,11.5425 -3.885,2.9731 -8.656,4.4597 -14.312,4.4597 -4.571,0 -8.685,-1.0202 -12.341,-3.0606 -3.6,-2.0986 -6.428,-5.0426 -8.485,-8.8318 -1.999,-3.7892 -2.999,-8.1614 -2.999,-13.1165 0,-5.0135 1,-9.4148 2.999,-13.204 2,-3.7892 4.8,-6.704 8.399,-8.7444 3.6,-2.0403 7.742,-3.0605 12.427,-3.0605 4.514,0 8.541,0.991 12.084,2.9731 3.599,1.982 6.37,4.8094 8.313,8.482 2,3.6143 2.999,7.7825 2.999,12.5044 z m -12.426,-3.4977 c -0.057,-3.148 -1.172,-5.6547 -3.343,-7.5202 -2.171,-1.9237 -4.828,-2.8856 -7.97,-2.8856 -2.971,0 -5.485,0.9327 -7.542,2.7982 -1.999,1.8072 -3.228,4.343 -3.685,7.6076 z"
       fill="#ffffff"
       id="path192" /><path
       d="m 388.533,35.5826 c 1.542,-2.2153 3.656,-4.0516 6.342,-5.509 2.742,-1.5157 5.856,-2.2735 9.341,-2.2735 4.057,0 7.713,1.0202 10.97,3.0605 3.314,2.0404 5.913,4.9552 7.799,8.7444 1.942,3.7309 2.914,8.0739 2.914,13.0291 0,4.9551 -0.972,9.3564 -2.914,13.204 -1.886,3.7892 -4.485,6.7331 -7.799,8.8318 -3.257,2.0986 -6.913,3.148 -10.97,3.148 -3.485,0 -6.57,-0.7287 -9.256,-2.1861 -2.628,-1.4574 -4.771,-3.2937 -6.427,-5.509 V 100.116 H 376.534 V 28.5871 h 11.999 z m 25.11,17.0515 c 0,-2.9148 -0.6,-5.4215 -1.799,-7.5202 -1.143,-2.1569 -2.686,-3.7892 -4.628,-4.8968 -1.886,-1.1076 -3.943,-1.6614 -6.171,-1.6614 -2.171,0 -4.228,0.5829 -6.17,1.7488 -1.886,1.1076 -3.429,2.7399 -4.628,4.8969 -1.143,2.1569 -1.714,4.6928 -1.714,7.6076 0,2.9148 0.571,5.4506 1.714,7.6076 1.199,2.1569 2.742,3.8183 4.628,4.9843 1.942,1.1076 3.999,1.6614 6.17,1.6614 2.228,0 4.285,-0.583 6.171,-1.7489 1.942,-1.1659 3.485,-2.8273 4.628,-4.9843 1.199,-2.1569 1.799,-4.7219 1.799,-7.695 z"
       fill="#ffffff"
       id="path194" /><path
       d="m 457.928,27.8875 c 3.6,0 6.799,0.8162 9.599,2.4484 2.8,1.574 4.971,3.935 6.513,7.083 1.6,3.0897 2.4,6.8206 2.4,11.1928 V 77.0309 H 464.442 V 50.2731 c 0,-3.8475 -0.943,-6.7915 -2.828,-8.8318 -1.886,-2.0987 -4.457,-3.148 -7.714,-3.148 -3.313,0 -5.942,1.0493 -7.884,3.148 -1.886,2.0403 -2.828,4.9843 -2.828,8.8318 V 77.0309 H 431.189 V 3.21384 h 11.999 V 34.6207 c 1.542,-2.0987 3.599,-3.7309 6.17,-4.8969 2.571,-1.2242 5.428,-1.8363 8.57,-1.8363 z"
       fill="#ffffff"
       id="path196" /><path
       d="m 490.506,22.8158 c -2.113,0 -3.885,-0.6704 -5.313,-2.0112 -1.371,-1.3991 -2.057,-3.1188 -2.057,-5.1592 0,-2.0403 0.686,-3.7309 2.057,-5.0717 1.428,-1.39912 3.2,-2.09867 5.313,-2.09867 2.114,0 3.857,0.69955 5.228,2.09867 1.429,1.3408 2.143,3.0314 2.143,5.0717 0,2.0404 -0.714,3.7601 -2.143,5.1592 -1.371,1.3408 -3.114,2.0112 -5.228,2.0112 z m 5.914,5.7713 V 77.0309 H 484.422 V 28.5871 Z"
       fill="#ffffff"
       id="path198" /><path
       d="m 523.015,77.8179 c -3.885,0 -7.37,-0.6996 -10.456,-2.0987 -3.085,-1.4574 -5.542,-3.4103 -7.37,-5.8587 -1.771,-2.4484 -2.742,-5.1592 -2.914,-8.1323 h 12.084 c 0.229,1.8655 1.114,3.4103 2.657,4.6345 1.6,1.2243 3.571,1.8364 5.913,1.8364 2.286,0 4.057,-0.4664 5.314,-1.3991 1.314,-0.9328 1.971,-2.1278 1.971,-3.5852 0,-1.574 -0.8,-2.7399 -2.4,-3.4978 -1.542,-0.8161 -4.028,-1.6906 -7.456,-2.6233 -3.542,-0.8744 -6.456,-1.778 -8.741,-2.7107 -2.229,-0.9328 -4.171,-2.361 -5.828,-4.2848 -1.6,-1.9237 -2.4,-4.5179 -2.4,-7.7825 0,-2.6816 0.743,-5.13 2.228,-7.3452 1.543,-2.2153 3.714,-3.9641 6.514,-5.2467 2.857,-1.2825 6.199,-1.9237 10.027,-1.9237 5.656,0 10.17,1.4574 13.541,4.3722 3.371,2.8565 5.228,6.7331 5.571,11.63 h -11.485 c -0.171,-1.9238 -0.971,-3.4395 -2.399,-4.5471 -1.371,-1.1659 -3.228,-1.7489 -5.571,-1.7489 -2.171,0 -3.856,0.4081 -5.056,1.2242 -1.143,0.8162 -1.714,1.953 -1.714,3.4103 0,1.6323 0.8,2.8857 2.399,3.7601 1.6,0.8162 4.085,1.6614 7.456,2.5359 3.429,0.8744 6.257,1.778 8.485,2.7107 2.228,0.9328 4.142,2.3902 5.742,4.3722 1.657,1.9238 2.514,4.4888 2.571,7.6951 0,2.7982 -0.771,5.3049 -2.314,7.5201 -1.485,2.2153 -3.657,3.9641 -6.513,5.2466 -2.8,1.2243 -6.085,1.8364 -9.856,1.8364 z"
       fill="#ffffff"
       id="path200" /><path
       d="m 213.781,26.9689 c 5.611,0 10.122,1.8446 13.532,5.5339 3.466,3.6306 5.199,8.7252 5.199,15.2839 V 76.3342 H 220.96 V 49.4556 c 0,-3.8064 -0.908,-6.705 -2.723,-8.696 -1.815,-2.0496 -4.291,-3.0744 -7.426,-3.0744 -3.136,0 -5.638,1.0248 -7.509,3.0744 -1.815,1.991 -2.723,4.8896 -2.723,8.696 V 76.3342 H 189.028 V 49.4556 c 0,-3.8064 -0.908,-6.705 -2.723,-8.696 -1.815,-2.0496 -4.291,-3.0744 -7.426,-3.0744 -3.191,0 -5.721,1.0248 -7.591,3.0744 -1.816,1.991 -2.723,4.8896 -2.723,8.696 V 76.3342 H 157.013 V 27.6716 h 11.552 v 5.8852 c 1.485,-2.0495 3.383,-3.6599 5.693,-4.8311 2.365,-1.1712 4.951,-1.7568 7.756,-1.7568 3.576,0 6.766,0.8199 9.572,2.4595 2.805,1.5811 4.978,3.8649 6.518,6.8514 1.485,-2.8108 3.631,-5.0653 6.436,-6.7636 2.86,-1.6982 5.941,-2.5473 9.241,-2.5473 z"
       fill="#ffffff"
       id="path202" /><path
       d="m 350.402,26.9689 c 5.61,0 10.121,1.8446 13.532,5.5339 3.465,3.6306 5.198,8.7252 5.198,15.2839 V 76.3342 H 357.58 V 49.4556 c 0,-3.8064 -0.908,-6.705 -2.723,-8.696 -1.815,-2.0496 -4.29,-3.0744 -7.426,-3.0744 -3.135,0 -5.638,1.0248 -7.508,3.0744 -1.816,1.991 -2.723,4.8896 -2.723,8.696 V 76.3342 H 325.648 V 49.4556 c 0,-3.8064 -0.908,-6.705 -2.723,-8.696 -1.815,-2.0496 -4.291,-3.0744 -7.426,-3.0744 -3.191,0 -5.721,1.0248 -7.591,3.0744 -1.815,1.991 -2.723,4.8896 -2.723,8.696 V 76.3342 H 293.633 V 27.6716 h 11.552 v 5.8852 c 1.485,-2.0495 3.383,-3.6599 5.693,-4.8311 2.366,-1.1712 4.951,-1.7568 7.756,-1.7568 3.576,0 6.766,0.8199 9.572,2.4595 2.805,1.5811 4.978,3.8649 6.518,6.8514 1.485,-2.8108 3.631,-5.0653 6.436,-6.7636 2.861,-1.6982 5.941,-2.5473 9.242,-2.5473 z"
       fill="#ffffff"
       id="path204" /></g></svg>
