<?xml version="1.0" encoding="UTF-8" standalone="no"?>
<svg
   width="10"
   height="22"
   viewBox="0 0 10 22"
   fill="none"
   version="1.1"
   id="svg4"
   sodipodi:docname="list-triangle.svg"
   inkscape:version="1.2.1 (9c6d41e410, 2022-07-14)"
   xmlns:inkscape="http://www.inkscape.org/namespaces/inkscape"
   xmlns:sodipodi="http://sodipodi.sourceforge.net/DTD/sodipodi-0.dtd"
   xmlns="http://www.w3.org/2000/svg"
   xmlns:svg="http://www.w3.org/2000/svg">
  <defs
     id="defs8" />
  <sodipodi:namedview
     id="namedview6"
     pagecolor="#505050"
     bordercolor="#eeeeee"
     borderopacity="1"
     inkscape:showpageshadow="0"
     inkscape:pageopacity="0"
     inkscape:pagecheckerboard="0"
     inkscape:deskcolor="#505050"
     showgrid="false"
     inkscape:zoom="14.735294"
     inkscape:cx="8.007984"
     inkscape:cy="8.5169661"
     inkscape:window-width="1278"
     inkscape:window-height="1368"
     inkscape:window-x="3193"
     inkscape:window-y="0"
     inkscape:window-maximized="0"
     inkscape:current-layer="svg4" />
  <path
     d="m 6.885015,16.918819 -2.82667,-2.82667 c -0.06197,-0.06248 -0.13571,-0.11208 -0.21695,-0.14592 -0.08124,-0.03385 -0.16837,-0.05127 -0.25638,-0.05127 -0.08801,0 -0.17515,0.01742 -0.25639,0.05127 -0.08124,0.03384 -0.15497,0.08344 -0.21694,0.14592 -0.12417,0.12491 -0.19387,0.29388 -0.19387,0.47 0,0.17613 0.0697,0.3451 0.19387,0.47 l 2.35999,2.36 -2.35999,2.36002 c -0.12417,0.1249 -0.19387,0.2939 -0.19387,0.47 0,0.1761 0.0697,0.3451 0.19387,0.47 0.06229,0.0618 0.13617,0.1107 0.21739,0.1438 0.08123,0.0332 0.1682,0.05 0.25594,0.0495 0.08774,5e-4 0.17471,-0.0163 0.25594,-0.0495 0.08122,-0.0331 0.1551,-0.082 0.21739,-0.1438 l 2.82667,-2.82668 c 0.06248,-0.06198 0.11208,-0.13571 0.14597,-0.21695 0.0338,-0.08124 0.0512,-0.16838 0.0512,-0.25639 0,-0.088 -0.0174,-0.17514 -0.0512,-0.25638 -0.03389,-0.08124 -0.08349,-0.15497 -0.14597,-0.21695 z"
     fill="#9d9fa6"
     id="path2" />
</svg>
