<?xml version="1.0" encoding="UTF-8"?>
<svg width="15" height="22" fill="none" version="1.1" viewBox="0 0 15 22" xmlns="http://www.w3.org/2000/svg">
 <path d="m6.885 16.919-2.8267-2.8267c-0.06197-0.06248-0.13571-0.11208-0.21695-0.14592-0.08124-0.03385-0.16837-0.05127-0.25638-0.05127s-0.17515 0.01742-0.25639 0.05127c-0.08124 0.03384-0.15497 0.08344-0.21694 0.14592-0.12417 0.12491-0.19387 0.29388-0.19387 0.47 0 0.17613 0.0697 0.3451 0.19387 0.47l2.36 2.36-2.36 2.36c-0.12417 0.1249-0.19387 0.2939-0.19387 0.47s0.0697 0.3451 0.19387 0.47c0.06229 0.0618 0.13617 0.1107 0.21739 0.1438 0.08123 0.0332 0.1682 0.05 0.25594 0.0495 0.08774 5e-4 0.17471-0.0163 0.25594-0.0495 0.08122-0.0331 0.1551-0.082 0.21739-0.1438l2.8267-2.8267c0.06248-0.06198 0.11208-0.13571 0.14597-0.21695 0.0338-0.08124 0.0512-0.16838 0.0512-0.25639 0-0.088-0.0174-0.17514-0.0512-0.25638-0.03389-0.08124-0.08349-0.15497-0.14597-0.21695z" fill="#9d9fa6"/>
</svg>
